<svg width="45" height="35" viewBox="0 0 45 35" fill="none" xmlns="http://www.w3.org/2000/svg">
<path d="M44.6512 16.6263C44.6512 16.6263 40.381 16.4494 36.1107 16.9598C36.1107 16.9598 35.6289 16.9194 35.3297 16.788C35.0304 16.6516 33.3923 15.4741 29.7306 16.1664C27.5447 16.5808 26.3529 17.3187 26.3529 17.3187C26.3529 17.3187 26.1551 17.4147 25.8813 17.5915C25.8458 16.7678 25.861 15.0445 26.5355 13.9226C26.5355 13.9226 28.3968 9.88989 31.2825 7.86845C31.2825 7.86845 33.1235 6.5899 32.8801 6.41808C32.4236 6.09465 30.2783 7.66631 30.2783 7.66631C30.2783 7.66631 31.0999 6.58485 31.8455 5.84197C31.8455 5.84197 32.449 5.34166 31.8962 5.2507C31.3434 5.15974 28.8735 7.05988 28.8735 7.05988C28.8735 7.05988 30.1414 4.87168 29.1322 4.97781C28.1229 5.08899 26.6978 6.92344 26.6978 6.92344C26.6978 6.92344 26.9818 5.71563 25.9725 5.88745C24.9633 6.06433 24.1772 7.31256 24.1772 7.31256C24.1772 7.31256 24.0403 6.3827 23.2542 6.58485C22.4731 6.78699 21.9305 7.6461 22.0928 8.11608C22.0928 8.11608 21.6262 7.54503 21.0785 7.47428C20.4597 7.39342 19.4606 8.20199 19.4758 9.46539C19.4758 9.46539 19.0143 8.62144 18.2485 8.97014C17.4878 9.31378 18.0761 10.6985 18.0761 10.6985C18.0761 10.6985 16.3517 9.01056 16.1894 11.7041C16.1894 11.7041 15.3323 10.8955 14.8556 11.4312C14.7288 11.5778 14.6477 11.7294 14.602 11.8709C13.8666 10.9057 9.96151 5.68531 9.92601 3.51227C9.92601 3.51227 9.79415 2.30952 10.0782 1.06128C10.0782 1.06128 10.3115 0.0859403 9.8043 0.0101366C9.8043 0.0101366 9.2667 -0.0151313 8.99791 0.924835C8.72911 1.8648 8.56682 3.20905 8.56682 3.20905C8.56682 3.20905 8.21688 1.56664 7.94809 0.788388C7.94809 0.788388 7.76044 0.0606724 7.22285 0.222387C6.61425 0.404316 7.18228 3.37582 7.18228 3.37582C7.18228 3.37582 5.64558 0.419477 4.49433 0.929888C3.44451 1.39482 5.03699 4.06311 5.03699 4.06311C5.03699 4.06311 3.59666 2.58746 2.93228 3.17873C2.2679 3.76495 3.31772 5.47811 3.31772 5.47811C3.31772 5.47811 2.04475 4.52298 1.61874 5.04856C1.19272 5.57413 1.75059 6.71624 2.55698 7.18117C2.55698 7.18117 1.34487 6.60001 0.893494 6.70108C0.18347 6.86785 0.300117 8.29296 2.09039 9.70796C2.09039 9.70796 0.335618 9.00551 0.132754 9.68774C-0.07011 10.375 2.55698 11.6283 2.55698 11.6283C2.55698 11.6283 -0.78013 11.9366 2.2679 13.488C2.2679 13.488 0.239257 14.054 0.710916 14.8778C1.1775 15.7015 2.04982 15.5853 2.04982 15.5853C2.04982 15.5853 0.842783 16.0603 1.53252 16.9497C1.53252 16.9497 2.07518 17.3995 2.56205 17.4804C2.56205 17.4804 1.91288 18.1828 2.41497 18.7185C2.91199 19.2491 3.6778 19.1885 3.6778 19.1885C3.6778 19.1885 3.2315 20.2144 3.47494 20.4519C3.72344 20.6894 4.86963 20.8562 4.86963 20.8562C4.86963 20.8562 4.5349 21.6091 4.69719 21.9225C4.85948 22.2358 5.98538 22.3217 5.98538 22.3217C5.98538 22.3217 5.61515 22.9736 5.84845 23.2465C6.08681 23.5194 7.08084 23.4284 7.08084 23.4284C7.08084 23.4284 6.77655 24.1663 7.38007 24.4594C7.98866 24.7525 8.41974 24.3734 8.41974 24.3734C8.41974 24.3734 8.29296 25.0203 8.6074 25.1568C8.64797 25.177 8.69361 25.182 8.74433 25.1921C7.96837 25.6773 6.9287 26.4252 5.93466 27.4662C5.93466 27.4662 4.88484 28.2849 4.38276 28.4012C4.38276 28.4012 1.29923 29.705 1.58831 30.4529C1.58831 30.4529 0.700776 30.9229 1.01521 31.4282C1.01521 31.4282 0.766709 31.8629 1.02536 32.2368C1.02536 32.2368 0.776847 32.5603 1.14707 32.9342C1.14707 32.9342 1.20793 33.5255 1.68466 33.5457C1.68466 33.5457 1.55788 34.5413 2.97285 33.7984C2.97285 33.7984 3.20615 34.895 4.90006 33.7478C4.90006 33.7478 7.33443 32.2924 8.46539 31.1756C8.46539 31.1756 14.5817 32.3429 24.1214 26.4606C24.1214 26.4606 26.4442 24.8889 27.3571 23.8833C27.3571 23.8833 28.3663 22.7108 29.4618 22.4329C29.4618 22.4329 33.1844 21.316 35.8469 19.613C35.8469 19.613 37.338 19.1683 38.7885 18.8196C38.7885 18.8196 41.1366 18.3647 44.8085 16.8082C44.8085 16.8032 45.1584 16.6667 44.6512 16.6263Z" fill="#E0E1E2"/>
</svg>
